<svg id="Layer_1" data-name="Layer 1" xmlns="http://www.w3.org/2000/svg" xmlns:xlink="http://www.w3.org/1999/xlink" viewBox="0 0 2000 2000"><defs><style>.cls-1{fill:none;}.cls-2{fill:#5e72d1;}.cls-3{clip-path:url(#clip-path);}.cls-4{fill:#4c60a5;}.cls-5{fill:#405287;}</style><clipPath id="clip-path"><path class="cls-1" d="M684.54,528.67H930s553.77-32.37,553.77,472.48c0,504-473.29,473.29-473.29,473.29h-326V1243H513.16V1001.16l410,.38v239.87s339.55,45,339.55-239.87c0-264.9-338-240.63-338-240.63H685.66Z"/></clipPath></defs><g id="Logo_1" data-name="Logo 1"><path class="cls-2" d="M684.54,528.67H930s553.77-32.37,553.77,472.48c0,504-473.29,473.29-473.29,473.29h-326V1243H513.16V1001.16l410,.38v239.87s339.55,45,339.55-239.87c0-264.9-338-240.63-338-240.63H685.66Z"/><g class="cls-3"><circle class="cls-4" cx="623.73" cy="1001.53" r="584.76"/><circle class="cls-5" cx="342.58" cy="1001.53" r="584.76"/></g></g></svg>