<svg id="Layer_1" data-name="Layer 1" xmlns="http://www.w3.org/2000/svg" xmlns:xlink="http://www.w3.org/1999/xlink" viewBox="0 0 2000 2000"><defs><style>.cls-1{fill:none;}.cls-2{fill:#131519;}.cls-3{fill:#5e72d1;}.cls-4{clip-path:url(#clip-path);}.cls-5{fill:#4c60a5;}.cls-6{fill:#405287;}</style><clipPath id="clip-path"><path class="cls-1" d="M136.91,844.2h80.87s182.46-10.66,182.46,155.68c0,166-155.94,155.93-155.94,155.93H136.91v-76.25H80.44V999.88l135.1.13v79s111.87,14.83,111.87-79c0-87.28-111.35-79.29-111.35-79.29H137.27Z"/></clipPath></defs><g id="Datafix"><path class="cls-2" d="M435.57,1018q9.87-20.38,27-31.36a69,69,0,0,1,38.1-11q18.18,0,31.36,7.22a52.16,52.16,0,0,1,20.38,19.44V977.82h61.46v175.92H552.38v-24.46a52,52,0,0,1-20.54,19.44q-13.33,7.21-31.2,7.21a69,69,0,0,1-38.1-11q-17.1-11-27-31.52t-9.88-47.82Q425.69,1038.34,435.57,1018Zm107.56,21a30.17,30.17,0,0,0-22.74-9.72q-13.8,0-22.89,9.56t-9.09,26.81q0,16.94,9.09,26.81a29.77,29.77,0,0,0,22.89,9.88,30.17,30.17,0,0,0,22.74-9.72q9.24-9.72,9.25-27Q552.38,1048.69,543.13,1039Z"/><path class="cls-2" d="M644.68,977.82V935.17h61.78v42.65h32v51.11h-32v59q0,7.21,3.29,10.34t11.13,3.14h17.88v52.37H712.1q-67.43,0-67.42-66.79V977.82Z"/><path class="cls-2" d="M765.82,1018q9.87-20.38,27-31.36a69,69,0,0,1,38.1-11q18.18,0,31.35,7.22a52.19,52.19,0,0,1,20.39,19.44V977.82h61.46v175.92H882.63v-24.46a52,52,0,0,1-20.54,19.44q-13.33,7.21-31.2,7.21a69,69,0,0,1-38.1-11q-17.1-11-27-31.52t-9.88-47.82Q755.94,1038.34,765.82,1018Zm107.56,21a30.17,30.17,0,0,0-22.74-9.72q-13.8,0-22.89,9.56t-9.09,26.81q0,16.94,9.09,26.81a29.77,29.77,0,0,0,22.89,9.88,30.17,30.17,0,0,0,22.74-9.72q9.24-9.72,9.25-27Q882.63,1048.69,873.38,1039Z"/><path class="cls-2" d="M974.85,977.82v-1.57q0-33.87,19.92-51.9t57.22-18q7.53,0,11.61.32V959a61.19,61.19,0,0,0-6.9-.31q-10,0-14.74,4.55t-5.33,14.58h27.59v51.11h-27.59v124.81H974.85V977.82Z"/><path class="cls-2" d="M1093,952.58a29,29,0,0,1-9.88-22.43,29.8,29.8,0,0,1,9.88-22.89q9.87-9.09,26.18-9.09,16,0,25.87,9.09a29.8,29.8,0,0,1,9.88,22.89,29,29,0,0,1-9.88,22.43q-9.87,8.92-25.87,8.93Q1102.9,961.51,1093,952.58Zm56.6,25.24v175.92h-61.46V977.82Z"/><path class="cls-2" d="M1296.51,1153.74l-31.68-44.22-25.08,44.22h-67.42l58.64-91.25-61.15-84.67h69l31.67,44.21,25.4-44.21h67.42l-59.9,89.68,62.09,86.24Z"/></g><g id="Logo_1" data-name="Logo 1"><path class="cls-3" d="M136.91,844.2h80.87s182.46-10.66,182.46,155.68c0,166-155.94,155.93-155.94,155.93H136.91v-76.25H80.44V999.88l135.1.13v79s111.87,14.83,111.87-79c0-87.28-111.35-79.29-111.35-79.29H137.27Z"/><g class="cls-4"><circle class="cls-5" cx="116.87" cy="1000" r="192.66"/><circle class="cls-6" cx="24.24" cy="1000" r="192.66"/></g></g><path class="cls-2" d="M1551.71,902.63V1049q0,20.4,9.48,31.49t28.81,11.09q19.32,0,29.17-11.27T1629,1049V902.63h70.14V1049q0,34.71-14.67,59.22a93.58,93.58,0,0,1-39.9,36.86q-25.23,12.36-56,12.35t-54.93-12.35a89.93,89.93,0,0,1-37.94-36.68q-13.77-24.33-13.77-59.4V902.63Z"/><path class="cls-2" d="M1926.94,1047.39a62.06,62.06,0,0,1,13.06,38.82q0,32.22-22.19,50.46t-62.27,18.26H1730.65V902.63H1851.6q38.65,0,60.66,17.18t22,48.31q0,22.18-11.63,37t-31,20.22Q1913.88,1030.39,1926.94,1047.39Zm-126.15-44.56h35.43q26.47,0,26.48-21.83,0-22.54-26.48-22.54h-35.43Zm67.28,73.37q0-11.46-7-17.54t-19.86-6.08h-40.44v45.8h40.8Q1868.07,1098.38,1868.07,1076.2Z"/></svg>