<svg id="Layer_1" data-name="Layer 1" xmlns="http://www.w3.org/2000/svg" viewBox="0 0 2000 2000"><defs><style>.cls-1{fill:#060706;}</style></defs><path class="cls-1" d="M554.06,929.43V1071H514.84l-53.78-64.3V1071H414.55V929.43h39.23l53.78,64.3v-64.3Z"/><path class="cls-1" d="M603.85,925.39c46.1,0,79.86,31.14,79.86,74s-33.76,74-79.86,74m31.74-74c0-22-14.15-35.38-31.74-35.38s-31.75,13.34-31.75,35.38,14.16,35.39,31.75,35.39S635.59,1021.43,635.59,999.39Z"/><path class="cls-1" d="M761.76,1034.58H748.82v35.58H701.1V928.63h68.14c39.43,0,64.5,20.62,64.5,53.38,0,20.42-9.7,35.78-26.69,44.48l29.72,43.67H785.82Zm4.45-69.16H748.82v33.16h17.39c13.14,0,19.41-6.26,19.41-16.57S779.35,965.42,766.21,965.42Z"/><path class="cls-1" d="M851.74,928.63H921.5c47.31,0,79.86,26.89,79.86,70.76s-32.55,70.77-79.86,70.77H851.74ZM919.47,1033c20,0,33.77-11.93,33.77-33.57s-13.75-33.56-33.77-33.56h-20V1033Z"/><path class="cls-1" d="M1202,925.79c46.1,0,79.87,31.14,79.87,74s-33.77,74-79.87,74m31.75-74c0-22-14.16-35.39-31.75-35.39s-31.74,13.35-31.74,35.39,14.15,35.38,31.74,35.38S1233.79,1021.84,1233.79,999.8Z"/><path class="cls-1" d="M1016.23,1000.61c0-43.47,33.36-74,78.85-74,27.7,0,49.54,10.11,63.49,28.31l-30.12,26.89c-8.29-10.51-18.2-16.58-30.94-16.58-19.81,0-33.16,13.75-33.16,35.39s13.35,35.38,33.16,35.38c12.74,0,22.65-6.07,30.94-16.58l30.12,26.89c-14,18.2-35.79,28.31-63.49,28.31C1049.59,1074.61,1016.23,1044.08,1016.23,1000.61Z"/><path class="cls-1" d="M1362.83,1035.79h-12.94v35.58h-47.71V929.84h68.13c39.43,0,64.5,20.62,64.5,53.38,0,20.42-9.7,35.79-26.69,44.48l29.73,43.67h-51Zm4.45-69.15h-17.39V999.8h17.39c13.14,0,19.41-6.27,19.41-16.58S1380.42,966.64,1367.28,966.64Z"/><path class="cls-1" d="M1585.45,983.22c0,32.75-25.07,53.38-64.5,53.38h-20.42v34.77h-47.72V929.84H1521C1560.38,929.84,1585.45,950.46,1585.45,983.22Zm-48.12,0c0-10.31-6.27-16.58-19.41-16.58h-17.39V999.8h17.39C1531.06,999.8,1537.33,993.53,1537.33,983.22Z"/></svg>