<svg id="Layer_1" data-name="Layer 1" xmlns="http://www.w3.org/2000/svg" viewBox="0 0 2000 2000"><defs><style>.cls-1{fill:#060706;}.cls-2{fill:#050504;}</style></defs><path class="cls-1" d="M554.06,1145.55v141.54H514.84l-53.78-64.3v64.3H414.55V1145.55h39.23l53.78,64.3v-64.3Z"/><path class="cls-1" d="M603.85,1141.51c46.1,0,79.86,31.13,79.86,74s-33.76,74-79.86,74m31.74-74c0-22-14.15-35.39-31.74-35.39s-31.75,13.35-31.75,35.39,14.16,35.38,31.75,35.38S635.59,1237.55,635.59,1215.51Z"/><path class="cls-1" d="M761.76,1250.69H748.82v35.59H701.1V1144.74h68.14c39.43,0,64.5,20.63,64.5,53.38,0,20.42-9.7,35.79-26.69,44.48l29.72,43.68H785.82Zm4.45-69.15H748.82v33.16h17.39c13.14,0,19.41-6.27,19.41-16.58S779.35,1181.54,766.21,1181.54Z"/><path class="cls-1" d="M851.74,1144.74H921.5c47.31,0,79.86,26.89,79.86,70.77s-32.55,70.77-79.86,70.77H851.74Zm67.73,104.33c20,0,33.77-11.93,33.77-33.56S939.49,1182,919.47,1182h-20v67.12Z"/><path class="cls-1" d="M1202,1141.91c46.1,0,79.87,31.14,79.87,74s-33.77,74-79.87,74m31.75-74c0-22-14.16-35.38-31.75-35.38s-31.74,13.34-31.74,35.38,14.15,35.39,31.74,35.39S1233.79,1238,1233.79,1215.91Z"/><path class="cls-1" d="M1016.23,1216.72c0-43.47,33.36-74,78.85-74,27.7,0,49.54,10.11,63.49,28.31l-30.12,26.89c-8.29-10.52-18.2-16.58-30.94-16.58-19.81,0-33.16,13.75-33.16,35.38s13.35,35.39,33.16,35.39c12.74,0,22.65-6.07,30.94-16.58l30.12,26.89c-14,18.2-35.79,28.31-63.49,28.31C1049.59,1290.73,1016.23,1260.2,1016.23,1216.72Z"/><path class="cls-1" d="M1362.83,1251.9h-12.94v35.59h-47.71V1146h68.13c39.43,0,64.5,20.63,64.5,53.38,0,20.43-9.7,35.79-26.69,44.49l29.73,43.67h-51Zm4.45-69.15h-17.39v33.16h17.39c13.14,0,19.41-6.26,19.41-16.58S1380.42,1182.75,1367.28,1182.75Z"/><path class="cls-1" d="M1585.45,1199.33c0,32.76-25.07,53.38-64.5,53.38h-20.42v34.78h-47.72V1146H1521C1560.38,1146,1585.45,1166.58,1585.45,1199.33Zm-48.12,0c0-10.31-6.27-16.58-19.41-16.58h-17.39v33.16h17.39C1531.06,1215.91,1537.33,1209.65,1537.33,1199.33Z"/><polygon class="cls-2" points="850.58 709.27 790.71 744.56 791.05 817.96 850.36 852.53 850.58 780.9 913.29 743.8 850.58 709.27"/><polygon class="cls-2" points="850.36 852.53 781.9 891.49 781.9 1003.2 879.95 1061.6 881.13 948.31 977.64 890.76 850.36 852.53"/><polygon class="cls-2" points="1000 996.39 1000 1061.61 943.96 1030.71 944.01 967.33 1000 996.39"/><polygon class="cls-2" points="1149.43 709.28 1209.29 744.56 1208.96 817.96 1149.64 852.53 1149.43 780.9 1086.72 743.81 1149.43 709.28"/><polygon class="cls-2" points="1149.64 852.53 1218.1 891.49 1218.1 1003.2 1120.05 1061.61 1118.87 948.31 1022.36 890.76 1149.64 852.53"/><polygon class="cls-2" points="1000 996.39 1000 1061.61 1056.04 1030.72 1055.99 967.33 1000 996.39"/></svg>