<svg id="Layer_1" data-name="Layer 1" xmlns="http://www.w3.org/2000/svg" viewBox="0 0 2000 2000"><defs><style>.cls-1{fill:#050504;}</style></defs><polygon class="cls-1" points="850.58 823.83 790.71 859.12 791.05 932.51 850.36 967.09 850.58 895.46 913.29 858.36 850.58 823.83"/><polygon class="cls-1" points="850.36 967.09 781.9 1006.04 781.9 1117.76 879.95 1176.16 881.13 1062.87 977.64 1005.32 850.36 967.09"/><polygon class="cls-1" points="1000 1110.95 1000 1176.17 943.96 1145.27 944.01 1081.89 1000 1110.95"/><polygon class="cls-1" points="1149.43 823.84 1209.29 859.12 1208.96 932.52 1149.64 967.09 1149.43 895.46 1086.72 858.37 1149.43 823.84"/><polygon class="cls-1" points="1149.64 967.09 1218.1 1006.05 1218.1 1117.76 1120.05 1176.17 1118.87 1062.87 1022.36 1005.32 1149.64 967.09"/><polygon class="cls-1" points="1000 1110.95 1000 1176.17 1056.04 1145.28 1055.99 1081.89 1000 1110.95"/></svg>