<svg id="Layer_1" data-name="Layer 1" xmlns="http://www.w3.org/2000/svg" viewBox="0 0 2000 2000"><defs><style>.cls-1{fill:#060706;}.cls-2{fill:#050504;}</style></defs><path class="cls-1" d="M834.22,929.43V1071H795l-53.78-64.3V1071H694.7V929.43h39.23l53.78,64.3v-64.3Z"/><path class="cls-1" d="M884,925.39c46.1,0,79.87,31.14,79.87,74s-33.77,74-79.87,74m31.74-74c0-22-14.15-35.38-31.74-35.38s-31.74,13.34-31.74,35.38,14.15,35.39,31.74,35.39S915.74,1021.43,915.74,999.39Z"/><path class="cls-1" d="M1041.91,1034.58H1029v35.58H981.26V928.63h68.14c39.42,0,64.5,20.62,64.5,53.38,0,20.42-9.71,35.78-26.69,44.48l29.72,43.67h-51Zm4.45-69.16H1029v33.16h17.39c13.15,0,19.41-6.26,19.41-16.57S1059.51,965.42,1046.36,965.42Z"/><path class="cls-1" d="M1131.89,928.63h69.76c47.31,0,79.87,26.89,79.87,70.76s-32.56,70.77-79.87,70.77h-69.76ZM1199.63,1033c20,0,33.76-11.93,33.76-33.57s-13.75-33.56-33.76-33.56h-20V1033Z"/><path class="cls-1" d="M1482.2,925.79c46.1,0,79.86,31.14,79.86,74s-33.76,74-79.86,74m31.74-74c0-22-14.15-35.39-31.74-35.39s-31.75,13.35-31.75,35.39,14.16,35.38,31.75,35.38S1513.94,1021.84,1513.94,999.8Z"/><path class="cls-1" d="M1296.38,1000.61c0-43.47,33.36-74,78.86-74,27.7,0,49.54,10.11,63.49,28.31L1408.6,981.8c-8.29-10.51-18.2-16.58-30.94-16.58-19.81,0-33.15,13.75-33.15,35.39s13.34,35.38,33.15,35.38c12.74,0,22.65-6.07,30.94-16.58l30.13,26.89c-14,18.2-35.79,28.31-63.49,28.31C1329.74,1074.61,1296.38,1044.08,1296.38,1000.61Z"/><path class="cls-1" d="M1643,1035.79h-12.94v35.58h-47.72V929.84h68.14c39.43,0,64.5,20.62,64.5,53.38,0,20.42-9.71,35.79-26.69,44.48l29.72,43.67h-51Zm4.45-69.15h-17.39V999.8h17.39c13.14,0,19.41-6.27,19.41-16.58S1660.58,966.64,1647.44,966.64Z"/><path class="cls-1" d="M1865.6,983.22c0,32.75-25.07,53.38-64.5,53.38h-20.42v34.77H1733V929.84h68.13C1840.53,929.84,1865.6,950.46,1865.6,983.22Zm-48.12,0c0-10.31-6.27-16.58-19.41-16.58h-17.39V999.8h17.39C1811.21,999.8,1817.48,993.53,1817.48,983.22Z"/><polygon class="cls-2" points="203.08 823.83 143.21 859.12 143.55 932.51 202.86 967.09 203.08 895.46 265.79 858.36 203.08 823.83"/><polygon class="cls-2" points="202.86 967.09 134.4 1006.04 134.4 1117.76 232.45 1176.16 233.63 1062.87 330.14 1005.32 202.86 967.09"/><polygon class="cls-2" points="352.5 1110.95 352.5 1176.17 296.46 1145.27 296.51 1081.89 352.5 1110.95"/><polygon class="cls-2" points="501.93 823.84 561.79 859.12 561.46 932.52 502.14 967.09 501.93 895.46 439.22 858.37 501.93 823.84"/><polygon class="cls-2" points="502.14 967.09 570.6 1006.05 570.6 1117.76 472.55 1176.17 471.37 1062.87 374.86 1005.32 502.14 967.09"/><polygon class="cls-2" points="352.5 1110.95 352.5 1176.17 408.54 1145.28 408.49 1081.89 352.5 1110.95"/></svg>