<svg id="Layer_1" data-name="Layer 1" xmlns="http://www.w3.org/2000/svg" viewBox="0 0 2000 2000"><defs><style>.cls-1{fill:#050504;}.cls-2{fill:#060706;}</style></defs><polygon class="cls-1" points="489.18 823.83 429.31 859.12 429.65 932.51 488.96 967.09 489.18 895.46 551.88 858.36 489.18 823.83"/><polygon class="cls-1" points="488.96 967.09 420.5 1006.04 420.5 1117.76 518.54 1176.16 519.73 1062.87 616.24 1005.32 488.96 967.09"/><polygon class="cls-1" points="638.6 1110.95 638.6 1176.17 582.56 1145.27 582.61 1081.89 638.6 1110.95"/><polygon class="cls-1" points="788.03 823.84 847.89 859.12 847.56 932.52 788.24 967.09 788.03 895.46 725.32 858.37 788.03 823.84"/><polygon class="cls-1" points="788.24 967.09 856.7 1006.05 856.7 1117.76 758.65 1176.17 757.47 1062.87 660.96 1005.32 788.24 967.09"/><polygon class="cls-1" points="638.6 1110.95 638.6 1176.17 694.64 1145.28 694.59 1081.89 638.6 1110.95"/><path class="cls-2" d="M1132.21,832.7V974.24H1093l-53.78-64.3v64.3H992.69V832.7h39.23L1085.7,897V832.7Z"/><path class="cls-2" d="M1182,828.66c46.1,0,79.87,31.14,79.87,74s-33.77,74-79.87,74m31.74-74c0-22-14.15-35.38-31.74-35.38s-31.75,13.34-31.75,35.38,14.16,35.39,31.75,35.39S1213.73,924.7,1213.73,902.66Z"/><path class="cls-2" d="M1180.45,1022.53c46.1,0,79.87,31.14,79.87,74s-33.77,74-79.87,74m31.74-74c0-22-14.15-35.38-31.74-35.38s-31.74,13.34-31.74,35.38,14.15,35.38,31.74,35.38S1212.19,1118.57,1212.19,1096.53Z"/><path class="cls-2" d="M1339.9,937.84H1327v35.59h-47.71V831.89h68.14c39.42,0,64.49,20.63,64.49,53.38,0,20.42-9.7,35.79-26.68,44.49l29.72,43.67h-51Zm4.45-69.15H1327v33.16h17.39c13.14,0,19.41-6.27,19.41-16.58S1357.49,868.69,1344.35,868.69Z"/><path class="cls-2" d="M1429.88,831.89h69.76c47.31,0,79.86,26.89,79.86,70.77s-32.55,70.77-79.86,70.77h-69.76Zm67.74,104.34c20,0,33.76-11.93,33.76-33.57s-13.75-33.56-33.76-33.56h-20v67.13Z"/><path class="cls-2" d="M994.63,1097.34c0-43.47,33.37-74,78.86-74,27.7,0,49.54,10.11,63.49,28.3l-30.13,26.89c-8.29-10.51-18.19-16.58-30.93-16.58-19.82,0-33.16,13.75-33.16,35.39s13.34,35.38,33.16,35.38c12.74,0,22.64-6.06,30.93-16.58L1137,1143c-14,18.2-35.79,28.31-63.49,28.31C1028,1171.34,994.63,1140.81,994.63,1097.34Z"/><path class="cls-2" d="M1341.24,1132.52H1328.3v35.59h-47.72V1026.57h68.14c39.43,0,64.5,20.62,64.5,53.38,0,20.42-9.7,35.79-26.69,44.48l29.72,43.68h-51Zm4.45-69.15H1328.3v33.16h17.39c13.14,0,19.41-6.27,19.41-16.58S1358.83,1063.37,1345.69,1063.37Z"/><path class="cls-2" d="M1563.86,1080c0,32.76-25.07,53.38-64.5,53.38h-20.42v34.78h-47.72V1026.57h68.14C1538.79,1026.57,1563.86,1047.19,1563.86,1080Zm-48.13,0c0-10.31-6.26-16.58-19.41-16.58h-17.38v33.16h17.38C1509.47,1096.53,1515.73,1090.26,1515.73,1080Z"/></svg>